<?xml version="1.0" encoding="UTF-8" standalone="no" ?>
<!DOCTYPE svg PUBLIC "-//W3C//DTD SVG 1.1//EN" "http://www.w3.org/Graphics/SVG/1.1/DTD/svg11.dtd">
<svg xmlns="http://www.w3.org/2000/svg" xmlns:xlink="http://www.w3.org/1999/xlink" version="1.1" width="400" height="400" viewBox="0 0 400 400" xml:space="preserve">
<desc>Created with Fabric.js 3.6.2</desc>
<defs>
</defs>
<g transform="matrix(0.13 0 0 0.13 200 200)"  >
<path style="stroke: none; stroke-width: 1; stroke-dasharray: none; stroke-linecap: butt; stroke-dashoffset: 0; stroke-linejoin: miter; stroke-miterlimit: 4; fill: #c70101; fill-rule: nonzero; opacity: 1;"  transform=" translate(-896, -896)" d="M 1293 1139 l 102 -102 q 19 -19 19 -45 t -19 -45 l -454 -454 q -19 -19 -45 -19 t -45 19 l -454 454 q -19 19 -19 45 t 19 45 l 102 102 q 19 19 45 19 t 45 -19 l 307 -307 l 307 307 q 19 19 45 19 t 45 -19 z m 371 -243 q 0 209 -103 385.5 t -279.5 279.5 t -385.5 103 t -385.5 -103 t -279.5 -279.5 t -103 -385.5 t 103 -385.5 t 279.5 -279.5 t 385.5 -103 t 385.5 103 t 279.5 279.5 t 103 385.5 z" stroke-linecap="round" />
</g>
</svg>